<mxfile host="app.diagrams.net" modified="2021-04-11T12:21:16.024Z" agent="5.0 (X11; Linux x86_64) AppleWebKit/537.36 (KHTML, like Gecko) Chrome/86.0.4240.198 Safari/537.36" etag="SLbtbctuEQxe3xRZiu-S" version="14.5.6" type="github">
  <diagram id="HxnqXtkmEQ8JRMTV-BZa" name="Page-1">
    <mxGraphModel dx="1696" dy="926" grid="1" gridSize="10" guides="1" tooltips="1" connect="1" arrows="1" fold="1" page="1" pageScale="1" pageWidth="827" pageHeight="1169" math="0" shadow="0">
      <root>
        <mxCell id="0" />
        <mxCell id="1" parent="0" />
        <mxCell id="WzDkD72iXFtZ2mAmZcsx-3" value="" style="edgeStyle=orthogonalEdgeStyle;rounded=0;orthogonalLoop=1;jettySize=auto;html=1;" edge="1" parent="1" source="WzDkD72iXFtZ2mAmZcsx-1" target="WzDkD72iXFtZ2mAmZcsx-2">
          <mxGeometry relative="1" as="geometry" />
        </mxCell>
        <mxCell id="WzDkD72iXFtZ2mAmZcsx-1" value="&lt;p style=&quot;line-height: 130% ; font-size: 20px&quot;&gt;START&lt;/p&gt;" style="ellipse;whiteSpace=wrap;html=1;" vertex="1" parent="1">
          <mxGeometry x="240" y="50" width="120" height="80" as="geometry" />
        </mxCell>
        <mxCell id="WzDkD72iXFtZ2mAmZcsx-5" value="" style="edgeStyle=orthogonalEdgeStyle;rounded=0;orthogonalLoop=1;jettySize=auto;html=1;" edge="1" parent="1" source="WzDkD72iXFtZ2mAmZcsx-2" target="WzDkD72iXFtZ2mAmZcsx-4">
          <mxGeometry relative="1" as="geometry" />
        </mxCell>
        <mxCell id="WzDkD72iXFtZ2mAmZcsx-2" value="&lt;font style=&quot;font-size: 20px&quot;&gt;Turn ON the gpio pins to take the input&lt;/font&gt;" style="rounded=0;whiteSpace=wrap;html=1;" vertex="1" parent="1">
          <mxGeometry x="72.5" y="170" width="320" height="110" as="geometry" />
        </mxCell>
        <mxCell id="WzDkD72iXFtZ2mAmZcsx-7" value="" style="edgeStyle=orthogonalEdgeStyle;rounded=0;orthogonalLoop=1;jettySize=auto;html=1;" edge="1" parent="1" source="WzDkD72iXFtZ2mAmZcsx-4" target="WzDkD72iXFtZ2mAmZcsx-6">
          <mxGeometry relative="1" as="geometry" />
        </mxCell>
        <mxCell id="WzDkD72iXFtZ2mAmZcsx-4" value="&lt;font style=&quot;font-size: 20px&quot;&gt;Declare i = 0&lt;/font&gt;" style="rounded=0;whiteSpace=wrap;html=1;" vertex="1" parent="1">
          <mxGeometry x="172.5" y="330" width="120" height="60" as="geometry" />
        </mxCell>
        <mxCell id="WzDkD72iXFtZ2mAmZcsx-12" value="" style="edgeStyle=orthogonalEdgeStyle;rounded=0;orthogonalLoop=1;jettySize=auto;html=1;" edge="1" parent="1" source="WzDkD72iXFtZ2mAmZcsx-6" target="WzDkD72iXFtZ2mAmZcsx-8">
          <mxGeometry relative="1" as="geometry" />
        </mxCell>
        <mxCell id="WzDkD72iXFtZ2mAmZcsx-22" value="" style="edgeStyle=orthogonalEdgeStyle;rounded=0;orthogonalLoop=1;jettySize=auto;html=1;" edge="1" parent="1" source="WzDkD72iXFtZ2mAmZcsx-6">
          <mxGeometry relative="1" as="geometry">
            <mxPoint x="690" y="530" as="targetPoint" />
            <Array as="points">
              <mxPoint x="690" y="460" />
              <mxPoint x="690" y="530" />
            </Array>
          </mxGeometry>
        </mxCell>
        <mxCell id="WzDkD72iXFtZ2mAmZcsx-6" value="&lt;font style=&quot;font-size: 20px&quot;&gt;is i&amp;lt;5?&lt;/font&gt;" style="rounded=0;whiteSpace=wrap;html=1;" vertex="1" parent="1">
          <mxGeometry x="172.5" y="430" width="120" height="60" as="geometry" />
        </mxCell>
        <mxCell id="WzDkD72iXFtZ2mAmZcsx-15" value="" style="edgeStyle=orthogonalEdgeStyle;rounded=0;orthogonalLoop=1;jettySize=auto;html=1;entryX=0.5;entryY=0;entryDx=0;entryDy=0;" edge="1" parent="1" source="WzDkD72iXFtZ2mAmZcsx-8" target="WzDkD72iXFtZ2mAmZcsx-13">
          <mxGeometry relative="1" as="geometry" />
        </mxCell>
        <mxCell id="WzDkD72iXFtZ2mAmZcsx-8" value="&lt;font style=&quot;font-size: 20px&quot;&gt;Turn all the 8 LEDs on&lt;/font&gt;" style="rounded=0;whiteSpace=wrap;html=1;" vertex="1" parent="1">
          <mxGeometry x="115" y="525" width="235" height="60" as="geometry" />
        </mxCell>
        <mxCell id="WzDkD72iXFtZ2mAmZcsx-16" value="" style="edgeStyle=orthogonalEdgeStyle;rounded=0;orthogonalLoop=1;jettySize=auto;html=1;" edge="1" parent="1" source="WzDkD72iXFtZ2mAmZcsx-13" target="WzDkD72iXFtZ2mAmZcsx-14">
          <mxGeometry relative="1" as="geometry" />
        </mxCell>
        <mxCell id="WzDkD72iXFtZ2mAmZcsx-13" value="&lt;font style=&quot;font-size: 20px&quot;&gt;Turn all the 8 LEDs off&lt;/font&gt;" style="rounded=0;whiteSpace=wrap;html=1;" vertex="1" parent="1">
          <mxGeometry x="115" y="610" width="235" height="60" as="geometry" />
        </mxCell>
        <mxCell id="WzDkD72iXFtZ2mAmZcsx-20" style="edgeStyle=orthogonalEdgeStyle;rounded=0;orthogonalLoop=1;jettySize=auto;html=1;entryX=0;entryY=0.5;entryDx=0;entryDy=0;" edge="1" parent="1" source="WzDkD72iXFtZ2mAmZcsx-14" target="WzDkD72iXFtZ2mAmZcsx-6">
          <mxGeometry relative="1" as="geometry">
            <Array as="points">
              <mxPoint x="30" y="720" />
              <mxPoint x="30" y="460" />
            </Array>
          </mxGeometry>
        </mxCell>
        <mxCell id="WzDkD72iXFtZ2mAmZcsx-14" value="&lt;font style=&quot;font-size: 20px&quot;&gt;i = i + 1&lt;/font&gt;" style="rounded=0;whiteSpace=wrap;html=1;" vertex="1" parent="1">
          <mxGeometry x="113.75" y="700" width="237.5" height="60" as="geometry" />
        </mxCell>
        <mxCell id="WzDkD72iXFtZ2mAmZcsx-18" value="&lt;font style=&quot;font-size: 20px&quot;&gt;Yes&lt;/font&gt;" style="text;html=1;align=center;verticalAlign=middle;resizable=0;points=[];autosize=1;" vertex="1" parent="1">
          <mxGeometry x="295" y="490" width="50" height="20" as="geometry" />
        </mxCell>
        <mxCell id="WzDkD72iXFtZ2mAmZcsx-19" value="&lt;font style=&quot;font-size: 20px&quot;&gt;NO&lt;/font&gt;" style="text;html=1;align=center;verticalAlign=middle;resizable=0;points=[];autosize=1;" vertex="1" parent="1">
          <mxGeometry x="400" y="430" width="50" height="20" as="geometry" />
        </mxCell>
        <mxCell id="WzDkD72iXFtZ2mAmZcsx-25" value="" style="edgeStyle=orthogonalEdgeStyle;rounded=0;orthogonalLoop=1;jettySize=auto;html=1;" edge="1" parent="1" source="WzDkD72iXFtZ2mAmZcsx-23" target="WzDkD72iXFtZ2mAmZcsx-24">
          <mxGeometry relative="1" as="geometry" />
        </mxCell>
        <mxCell id="WzDkD72iXFtZ2mAmZcsx-23" value="&lt;font style=&quot;font-size: 20px&quot;&gt;Declare a variable var=00000001&lt;/font&gt;" style="rounded=0;whiteSpace=wrap;html=1;" vertex="1" parent="1">
          <mxGeometry x="570" y="535" width="260" height="60" as="geometry" />
        </mxCell>
        <mxCell id="WzDkD72iXFtZ2mAmZcsx-27" value="" style="edgeStyle=orthogonalEdgeStyle;rounded=0;orthogonalLoop=1;jettySize=auto;html=1;" edge="1" parent="1" source="WzDkD72iXFtZ2mAmZcsx-24" target="WzDkD72iXFtZ2mAmZcsx-26">
          <mxGeometry relative="1" as="geometry" />
        </mxCell>
        <mxCell id="WzDkD72iXFtZ2mAmZcsx-29" style="edgeStyle=orthogonalEdgeStyle;rounded=0;orthogonalLoop=1;jettySize=auto;html=1;" edge="1" parent="1" source="WzDkD72iXFtZ2mAmZcsx-24" target="WzDkD72iXFtZ2mAmZcsx-28">
          <mxGeometry relative="1" as="geometry" />
        </mxCell>
        <mxCell id="WzDkD72iXFtZ2mAmZcsx-24" value="&lt;font style=&quot;font-size: 20px&quot;&gt;check if var=00000000?&lt;/font&gt;" style="rounded=0;whiteSpace=wrap;html=1;" vertex="1" parent="1">
          <mxGeometry x="560" y="640" width="280" height="60" as="geometry" />
        </mxCell>
        <mxCell id="WzDkD72iXFtZ2mAmZcsx-30" style="edgeStyle=orthogonalEdgeStyle;rounded=0;orthogonalLoop=1;jettySize=auto;html=1;entryX=1;entryY=0.5;entryDx=0;entryDy=0;" edge="1" parent="1" source="WzDkD72iXFtZ2mAmZcsx-26" target="WzDkD72iXFtZ2mAmZcsx-28">
          <mxGeometry relative="1" as="geometry">
            <Array as="points">
              <mxPoint x="1050" y="780" />
            </Array>
          </mxGeometry>
        </mxCell>
        <mxCell id="WzDkD72iXFtZ2mAmZcsx-26" value="&lt;font style=&quot;font-size: 20px&quot;&gt;set var=00000001&lt;/font&gt;" style="rounded=0;whiteSpace=wrap;html=1;" vertex="1" parent="1">
          <mxGeometry x="900" y="640" width="280" height="60" as="geometry" />
        </mxCell>
        <mxCell id="WzDkD72iXFtZ2mAmZcsx-34" value="" style="edgeStyle=orthogonalEdgeStyle;rounded=0;orthogonalLoop=1;jettySize=auto;html=1;" edge="1" parent="1" source="WzDkD72iXFtZ2mAmZcsx-28" target="WzDkD72iXFtZ2mAmZcsx-33">
          <mxGeometry relative="1" as="geometry" />
        </mxCell>
        <mxCell id="WzDkD72iXFtZ2mAmZcsx-28" value="&lt;font style=&quot;font-size: 20px&quot;&gt;Turn on the LEDs a/c to var&lt;/font&gt;" style="rounded=0;whiteSpace=wrap;html=1;" vertex="1" parent="1">
          <mxGeometry x="530" y="750" width="340" height="60" as="geometry" />
        </mxCell>
        <mxCell id="WzDkD72iXFtZ2mAmZcsx-31" value="&lt;font style=&quot;font-size: 20px&quot;&gt;Yes&lt;/font&gt;" style="text;html=1;align=center;verticalAlign=middle;resizable=0;points=[];autosize=1;" vertex="1" parent="1">
          <mxGeometry x="840" y="640" width="50" height="20" as="geometry" />
        </mxCell>
        <mxCell id="WzDkD72iXFtZ2mAmZcsx-32" value="&lt;font style=&quot;font-size: 20px&quot;&gt;NO&lt;/font&gt;" style="text;html=1;align=center;verticalAlign=middle;resizable=0;points=[];autosize=1;" vertex="1" parent="1">
          <mxGeometry x="710" y="710" width="50" height="20" as="geometry" />
        </mxCell>
        <mxCell id="WzDkD72iXFtZ2mAmZcsx-35" style="edgeStyle=orthogonalEdgeStyle;rounded=0;orthogonalLoop=1;jettySize=auto;html=1;entryX=0;entryY=0.25;entryDx=0;entryDy=0;" edge="1" parent="1" source="WzDkD72iXFtZ2mAmZcsx-33" target="WzDkD72iXFtZ2mAmZcsx-24">
          <mxGeometry relative="1" as="geometry">
            <mxPoint x="460" y="620" as="targetPoint" />
            <Array as="points">
              <mxPoint x="450" y="870" />
              <mxPoint x="450" y="655" />
            </Array>
          </mxGeometry>
        </mxCell>
        <mxCell id="WzDkD72iXFtZ2mAmZcsx-33" value="&lt;font style=&quot;font-size: 20px&quot;&gt;&amp;nbsp;Left shift the var variable&lt;/font&gt;" style="rounded=0;whiteSpace=wrap;html=1;" vertex="1" parent="1">
          <mxGeometry x="560" y="840" width="280" height="60" as="geometry" />
        </mxCell>
      </root>
    </mxGraphModel>
  </diagram>
</mxfile>
